<svg width="14" height="17" viewBox="0 0 14 17" fill="none" xmlns="http://www.w3.org/2000/svg">
<g id="&#240;&#159;&#166;&#134; icon &#34;apple&#34;">
<g id="Group">
<path id="Vector" fill-rule="evenodd" clip-rule="evenodd" d="M12.9462 14.2278C13.4396 13.5078 13.6236 13.1398 14 12.3318C11.2233 11.3239 10.78 7.53994 13.5233 6.09196C12.6869 5.08398 11.5076 4.5 10.3952 4.5C9.59233 4.5 9.04033 4.7 8.54687 4.884C8.12868 5.036 7.75232 5.17199 7.28395 5.17199C6.78213 5.17199 6.33885 5.02 5.87048 4.86C5.3603 4.684 4.82499 4.5 4.15589 4.5C2.9097 4.5 1.57988 5.22799 0.735147 6.47596C-0.452498 8.23593 -0.243406 11.5319 1.67188 14.3478C2.3577 15.3558 3.27771 16.4838 4.47372 16.4998C4.97554 16.5078 5.30173 16.3638 5.66139 16.2118C6.07121 16.0358 6.51449 15.8438 7.29231 15.8438C8.07014 15.8358 8.50505 16.0358 8.91487 16.2118C9.26614 16.3638 9.58397 16.5078 10.0774 16.4998C11.2902 16.4838 12.2603 15.2358 12.9462 14.2278Z" fill="#685740"/>
<path id="Vector_2" fill-rule="evenodd" clip-rule="evenodd" d="M10.2199 0.5C10.3538 1.37998 9.97738 2.25197 9.48393 2.85996C8.95701 3.51595 8.03701 4.02793 7.15045 3.99593C6.99154 3.14795 7.40136 2.27596 7.90319 1.69197C8.46355 1.05198 9.40865 0.555999 10.2199 0.5Z" fill="#685740"/>
</g>
</g>
</svg>
