<svg width="16" height="17" viewBox="0 0 16 17" fill="none" xmlns="http://www.w3.org/2000/svg">
<path d="M15.951 7.756C15.9102 7.348 15.5592 7.044 15.1429 7.044H8.97958C8.53061 7.044 8.16326 7.404 8.16326 7.844V9.212C8.16326 9.652 8.53061 10.012 8.97958 10.012H12.6612C12.5714 10.748 12.0816 11.86 10.9959 12.604C10.302 13.076 9.37959 13.404 8.16326 13.404C8.10611 13.404 8.05714 13.404 7.99999 13.396C5.91837 13.332 4.15511 11.964 3.51837 10.084C3.34694 9.58 3.24898 9.052 3.24898 8.5C3.24898 7.948 3.34694 7.412 3.51021 6.916C3.55919 6.77199 3.61633 6.62801 3.68164 6.48401C4.43266 4.82801 6.07348 3.66 7.99999 3.604C8.04897 3.596 8.10611 3.596 8.16326 3.596C9.33061 3.596 10.2041 3.97199 10.8163 4.38799C11.1347 4.60399 11.5592 4.55599 11.8367 4.29199L12.9714 3.204C13.3306 2.86 13.298 2.27599 12.8898 1.98799C11.5918 1.05199 10.0082 0.5 8.16326 0.5C8.10611 0.5 8.05714 0.500008 7.99999 0.508008C4.87347 0.564008 2.18776 2.34001 0.87347 4.90801C0.318368 5.99601 0 7.212 0 8.5C0 9.788 0.318368 11.004 0.87347 12.092H0.881634C2.19592 14.66 4.88164 16.436 7.99999 16.492C8.05714 16.5 8.10611 16.5 8.16326 16.5C10.3673 16.5 12.2204 15.788 13.5673 14.564C15.1102 13.164 16 11.116 16 8.676C16 8.332 15.9837 8.036 15.951 7.756Z" fill="#685740"/>
</svg>
